<svg width="100" height="100" viewBox="0 0 100 100" fill="none" xmlns="http://www.w3.org/2000/svg">
<path d="M60 26C62.1762 18.5992 66.5919 7.44327 75.4556 10.5262C78.9232 11.7323 81.481 15.8658 83.2796 19.0576C84.1869 20.6677 85.0441 22.3384 86 23.8899" stroke-width="5" stroke-linecap="round"/>
<path d="M14 28C16.1762 20.5992 20.5919 9.44327 29.4556 12.5262C32.9232 13.7323 35.481 17.8658 37.2796 21.0576C38.1869 22.6677 39.0441 24.3384 40 25.8899" stroke-width="5" stroke-linecap="round"/>
<path d="M48.8467 20C49.6475 26.5237 49.4954 32.9899 48.9562 39.527C48.6432 43.3207 48.1898 47.0995 48.1898 50.9114C48.1898 51.8222 49.9504 50.833 50.6107 50.7965C53.427 50.641 56.1631 51.0909 58.7979 52.1749C61.0728 53.1108 63.7529 54.3195 65.2212 56.476C67.1638 59.3293 65.1002 62.9811 63.0923 65.0525C58.3869 69.9067 52.2998 71 46 71" stroke-width="5" stroke-linecap="round"/>
<path d="M39 82.689C42.1977 85.7804 46.0112 89.3613 50.331 89.903C55.0116 90.4899 60.0577 88.3433 63.8713 85.3942C65.8622 83.8546 67.5311 82.3028 69.1211 80.2706C69.4527 79.8468 69.8436 79.5398 70 79" stroke-width="5" stroke-linecap="round"/>
</svg>
